<?xml version="1.0" encoding="UTF-8" standalone="no"?>
<!-- Created with Inkscape (http://www.inkscape.org/) -->

<svg
   xmlns:dc="http://purl.org/dc/elements/1.1/"
   xmlns:cc="http://creativecommons.org/ns#"
   xmlns:rdf="http://www.w3.org/1999/02/22-rdf-syntax-ns#"
   xmlns:svg="http://www.w3.org/2000/svg"
   xmlns="http://www.w3.org/2000/svg"
   xmlns:sodipodi="http://sodipodi.sourceforge.net/DTD/sodipodi-0.dtd"
   xmlns:inkscape="http://www.inkscape.org/namespaces/inkscape"
   width="210mm"
   height="297mm"
   id="svg2"
   version="1.1"
   inkscape:version="0.48.1 r9760"
   sodipodi:docname="mockup¹.svg">
  <defs
     id="defs4" />
  <sodipodi:namedview
     id="base"
     pagecolor="#ffffff"
     bordercolor="#666666"
     borderopacity="1.0"
     inkscape:pageopacity="0.0"
     inkscape:pageshadow="2"
     inkscape:zoom="3.959798"
     inkscape:cx="209.1272"
     inkscape:cy="842.40633"
     inkscape:document-units="px"
     inkscape:current-layer="layer1"
     showgrid="false"
     inkscape:window-width="1852"
     inkscape:window-height="1146"
     inkscape:window-x="158"
     inkscape:window-y="24"
     inkscape:window-maximized="0" />
  <metadata
     id="metadata7">
    <rdf:RDF>
      <cc:Work
         rdf:about="">
        <dc:format>image/svg+xml</dc:format>
        <dc:type
           rdf:resource="http://purl.org/dc/dcmitype/StillImage" />
        <dc:title></dc:title>
      </cc:Work>
    </rdf:RDF>
  </metadata>
  <g
     inkscape:label="Calque 1"
     inkscape:groupmode="layer"
     id="layer1">
    <path
       style="fill:none;stroke:#000000;stroke-width:1px;stroke-linecap:butt;stroke-linejoin:miter;stroke-opacity:1"
       d="M 43.750001,122.71932 C 130.13389,100.07739 133.92573,80.488149 148.035,79.494932 c 6.36559,-0.448104 14.83128,2.888988 33.92929,11.438678 61.42857,27.5 37.85714,40 79.28572,28.21428 41.42857,-11.78571 99.28571,-12.14286 99.28571,-12.14286 l 23.57143,8.57143"
       id="path2985"
       inkscape:connector-curvature="0"
       sodipodi:nodetypes="cssscc" />
    <path
       sodipodi:nodetypes="cssssc"
       inkscape:connector-curvature="0"
       id="path3779"
       d="m 138.55357,96.094323 c -3.16992,9.033677 -2.43743,16.018767 -0.0669,19.446197 1.71385,2.47797 25.91467,5.38332 31.68104,2.26951 3.72017,-2.00889 3.57327,-18.486068 2.67813,-20.001472 -2.01407,-3.40967 -33.32853,-4.460799 -34.2923,-1.714235 z"
       style="fill:#ffffff;fill-opacity:1;stroke:#000000;stroke-width:1px;stroke-linecap:butt;stroke-linejoin:miter;stroke-opacity:1" />
    <path
       style="fill:#ffffff;fill-opacity:1;stroke:#000000;stroke-width:1px;stroke-linecap:butt;stroke-linejoin:miter;stroke-opacity:1"
       d="m 178.78577,113.02082 c 14.37229,-5.29769 11.48888,-10.00574 17.19577,-20.412211 -2.87354,10.640661 -3.74519,23.549711 -15.81899,22.867211"
       id="path2993"
       inkscape:connector-curvature="0"
       sodipodi:nodetypes="ccc" />
    <path
       sodipodi:nodetypes="csssc"
       inkscape:connector-curvature="0"
       id="path3777"
       d="m 134.76784,127.23718 c -0.25779,4.16179 -1.60074,5.50196 -0.61403,6.84333 1.35237,1.83845 5.57779,1.70701 7.72082,1.05613 0.80873,-0.24563 0.65512,-1.52389 0.3024,-2.06854 -1.3076,-2.01915 -4.6397,-5.5355 -3.65918,-5.92021"
       style="fill:none;stroke:#000000;stroke-width:1px;stroke-linecap:butt;stroke-linejoin:miter;stroke-opacity:1" />
    <path
       style="fill:none;stroke:#000000;stroke-width:1px;stroke-linecap:butt;stroke-linejoin:miter;stroke-opacity:1"
       d="m 155.21427,127.50504 c -0.25779,4.16179 -1.60074,5.50196 -0.61403,6.84333 1.35237,1.83845 5.57779,1.70701 7.72082,1.05613 0.80873,-0.24563 0.65512,-1.52389 0.3024,-2.06854 -1.3076,-2.01915 -4.6397,-5.5355 -3.65918,-5.92021"
       id="path3775"
       inkscape:connector-curvature="0"
       sodipodi:nodetypes="csssc" />
    <path
       sodipodi:nodetypes="csssc"
       inkscape:connector-curvature="0"
       id="path3773"
       d="m 158.57142,128.79075 c -0.25779,4.16179 -1.60074,5.50196 -0.61403,6.84333 1.35237,1.83845 5.57779,1.70701 7.72082,1.05613 0.80873,-0.24563 0.65512,-1.52389 0.3024,-2.06854 -1.3076,-2.01915 -4.6397,-5.5355 -3.65918,-5.92021"
       style="fill:#ffffff;fill-opacity:1;stroke:#000000;stroke-width:1px;stroke-linecap:butt;stroke-linejoin:miter;stroke-opacity:1" />
    <path
       style="fill:#ffffff;fill-opacity:1;stroke:#000000;stroke-width:1px;stroke-linecap:butt;stroke-linejoin:miter;stroke-opacity:1"
       d="m 130.03571,127.54075 c -0.25779,4.16179 -1.60074,5.50196 -0.61403,6.84333 1.35237,1.83845 5.57779,1.70701 7.72082,1.05613 0.80873,-0.24563 0.65512,-1.52389 0.3024,-2.06854 -1.3076,-2.01915 -4.6397,-5.5355 -3.65918,-5.92021"
       id="path2995"
       inkscape:connector-curvature="0"
       sodipodi:nodetypes="csssc" />
    <path
       style="fill:#ffffff;fill-opacity:1;stroke:#000000;stroke-width:1px;stroke-linecap:butt;stroke-linejoin:miter;stroke-opacity:1"
       d="m 177.06934,109.14702 c 1.9479,2.59922 -0.35943,-1.01209 9.42804,1.72556 3.18731,0.89153 2.60508,3.37856 3.39835,5.04064 1.03561,2.16985 2.30635,3.61125 4.99865,6.07898 1.36938,1.25516 -0.18319,2.17659 -0.6962,3.53571 -0.3248,0.86051 -11.98123,-0.2346 -17.59553,-2.94893 -0.33101,-0.16003 -3.23213,-0.17972 -6.57659,4.77803 -1.88033,2.78738 -5.13312,1.81567 -7.79247,2.66016 -3.38921,1.07627 -6.4424,-2.00539 -10.27591,-0.76252 -2.75791,0.89414 -9.0375,-0.81166 -12.57591,0.33564 -5.15006,1.66987 -7.62501,0.39976 -8.66132,-0.26126 -2.59947,-1.6581 -6.15898,0.40461 -6.27956,-0.26484 -1.82985,-10.1594 -0.87077,-18.79904 9.28188,-22.52019 11.68911,-4.2843 26.59595,-11.647861 37.09967,-6.0279 4.94538,2.64601 4.33992,6.08631 6.2469,8.63092 z"
       id="path2991"
       inkscape:connector-curvature="0"
       sodipodi:nodetypes="sssssssssssssss" />
    <path
       style="fill:#ffffff;fill-opacity:1;stroke:#000000;stroke-width:1px;stroke-linecap:butt;stroke-linejoin:miter;stroke-opacity:1"
       d="m 134.4273,96.304032 c -5.0134,6.575728 -2.31116,22.023348 0.0594,25.450778 1.71385,2.47797 25.91467,5.02617 31.68104,1.91236 3.72017,-2.00889 4.78923,-21.48525 2.9938,-26.280249 -3.36197,-8.105604 -33.6373,-3.877298 -34.73421,-1.082889 z"
       id="path3001"
       inkscape:connector-curvature="0"
       sodipodi:nodetypes="csscsc" />
    <path
       sodipodi:nodetypes="ccc"
       inkscape:connector-curvature="0"
       id="path3003"
       d="m 177.60714,115.3979 c -12.50963,-4.10455 7.60985,-18.385552 16.48149,-25.075051 -7.57952,9.992471 -20.56023,16.977051 -14.52738,23.257171"
       style="fill:#ffffff;fill-opacity:1;stroke:#000000;stroke-width:1px;stroke-linecap:butt;stroke-linejoin:miter;stroke-opacity:1" />
    <path
       style="fill:none;stroke:#000000;stroke-width:1px;stroke-linecap:butt;stroke-linejoin:miter;stroke-opacity:1"
       d="m 146.20801,93.261382 c -6.69643,5.446433 -5.26073,25.628708 -2.23027,31.121408"
       id="path3781"
       inkscape:connector-curvature="0"
       sodipodi:nodetypes="cc" />
    <path
       sodipodi:nodetypes="cc"
       inkscape:connector-curvature="0"
       id="path3785"
       d="m 158.33555,92.897894 c -6.69643,5.446433 -2.67221,31.942166 -2.67221,31.942166"
       style="fill:none;stroke:#000000;stroke-width:1px;stroke-linecap:butt;stroke-linejoin:miter;stroke-opacity:1" />
    <path
       style="fill:none;stroke:#000000;stroke-width:1px;stroke-linecap:round;stroke-linejoin:round;stroke-opacity:1"
       d="m 181.85269,116.22379 c 0.91555,-0.47779 1.82692,-0.47062 2.2991,0.64732"
       id="path3826"
       inkscape:connector-curvature="0"
       sodipodi:nodetypes="cc" />
    <rect
       style="fill:#000000;fill-opacity:1;stroke:none;stroke-width:3.90000010000000019;stroke-linecap:round;stroke-linejoin:round;stroke-miterlimit:4;stroke-opacity:1;stroke-dasharray:none"
       id="rect3852"
       width="210"
       height="115.71429"
       x="38.92857"
       y="206.29076" />
    <path
       sodipodi:nodetypes="cssscc"
       inkscape:connector-curvature="0"
       id="path3854"
       d="m 33.678572,276.71932 c 86.383888,-22.64193 90.175728,-42.23117 104.284998,-43.22439 6.36559,-0.4481 14.83128,2.88899 33.92929,11.43868 61.42857,27.5 37.85714,40 79.28572,28.21428 41.42857,-11.78571 99.28571,-12.14286 99.28571,-12.14286 l 23.57143,8.57143"
       style="fill:none;stroke:#ffffff;stroke-width:1px;stroke-linecap:butt;stroke-linejoin:miter;stroke-opacity:1" />
    <path
       sodipodi:nodetypes="ccc"
       inkscape:connector-curvature="0"
       id="path3830"
       d="m 168.42863,263.02082 c 14.37229,-5.29769 11.48888,-10.00574 17.19577,-20.41221 -2.87354,10.64066 -3.74519,23.54971 -15.81899,22.86721"
       style="fill:#000000;fill-opacity:1;stroke:#ffffff;stroke-width:1px;stroke-linecap:butt;stroke-linejoin:miter;stroke-opacity:1" />
    <path
       style="fill:#000000;fill-opacity:1;stroke:#ffffff;stroke-width:1px;stroke-linecap:butt;stroke-linejoin:miter;stroke-opacity:1"
       d="m 128.19643,246.09432 c -3.16992,9.03368 -2.43743,16.01877 -0.0669,19.4462 1.71385,2.47797 25.91467,5.38332 31.68104,2.26951 3.72017,-2.00889 3.57327,-18.48607 2.67813,-20.00147 -2.01407,-3.40967 -33.32853,-4.4608 -34.2923,-1.71424 z"
       id="path3828"
       inkscape:connector-curvature="0"
       sodipodi:nodetypes="cssssc" />
    <path
       style="fill:#000000;stroke:#ffffff;stroke-width:1px;stroke-linecap:butt;stroke-linejoin:miter;stroke-opacity:1;fill-opacity:1"
       d="m 124.4107,277.23718 c -0.25779,4.16179 -1.60074,5.50196 -0.61403,6.84333 1.35237,1.83845 5.57779,1.70701 7.72082,1.05613 0.80873,-0.24563 0.65512,-1.52389 0.3024,-2.06854 -1.3076,-2.01915 -4.6397,-5.5355 -3.65918,-5.92021"
       id="path3832"
       inkscape:connector-curvature="0"
       sodipodi:nodetypes="csssc" />
    <path
       sodipodi:nodetypes="csssc"
       inkscape:connector-curvature="0"
       id="path3834"
       d="m 144.85713,277.50504 c -0.25779,4.16179 -1.60074,5.50196 -0.61403,6.84333 1.35237,1.83845 5.57779,1.70701 7.72082,1.05613 0.80873,-0.24563 0.65512,-1.52389 0.3024,-2.06854 -1.3076,-2.01915 -4.6397,-5.5355 -3.65918,-5.92021"
       style="fill:#000000;stroke:#ffffff;stroke-width:1px;stroke-linecap:butt;stroke-linejoin:miter;stroke-opacity:1;fill-opacity:1" />
    <path
       style="fill:#000000;fill-opacity:1;stroke:#ffffff;stroke-width:1px;stroke-linecap:butt;stroke-linejoin:miter;stroke-opacity:1"
       d="m 148.21428,278.79075 c -0.25779,4.16179 -1.60074,5.50196 -0.61403,6.84333 1.35237,1.83845 5.57779,1.70701 7.72082,1.05613 0.80873,-0.24563 0.65512,-1.52389 0.3024,-2.06854 -1.3076,-2.01915 -4.6397,-5.5355 -3.65918,-5.92021"
       id="path3836"
       inkscape:connector-curvature="0"
       sodipodi:nodetypes="csssc" />
    <path
       sodipodi:nodetypes="csssc"
       inkscape:connector-curvature="0"
       id="path3838"
       d="m 119.67857,277.54075 c -0.25779,4.16179 -1.60074,5.50196 -0.61403,6.84333 1.35237,1.83845 5.57779,1.70701 7.72082,1.05613 0.80873,-0.24563 0.65512,-1.52389 0.3024,-2.06854 -1.3076,-2.01915 -4.6397,-5.5355 -3.65918,-5.92021"
       style="fill:#000000;fill-opacity:1;stroke:#ffffff;stroke-width:1px;stroke-linecap:butt;stroke-linejoin:miter;stroke-opacity:1" />
    <path
       sodipodi:nodetypes="sssssssssssssss"
       inkscape:connector-curvature="0"
       id="path3840"
       d="m 166.7122,259.14702 c 1.9479,2.59922 -0.35943,-1.01209 9.42804,1.72556 3.18731,0.89153 2.60508,3.37856 3.39835,5.04064 1.03561,2.16985 2.30635,3.61125 4.99865,6.07898 1.36938,1.25516 -0.18319,2.17659 -0.6962,3.53571 -0.3248,0.86051 -11.98123,-0.2346 -17.59553,-2.94893 -0.33101,-0.16003 -3.23213,-0.17972 -6.57659,4.77803 -1.88033,2.78738 -5.13312,1.81567 -7.79247,2.66016 -3.38921,1.07627 -6.4424,-2.00539 -10.27591,-0.76252 -2.75791,0.89414 -9.0375,-0.81166 -12.57591,0.33564 -5.15006,1.66987 -7.62501,0.39976 -8.66132,-0.26126 -2.59947,-1.6581 -6.15898,0.40461 -6.27956,-0.26484 -1.82985,-10.1594 -0.87077,-18.79904 9.28188,-22.52019 11.68911,-4.2843 26.59595,-11.64786 37.09967,-6.0279 4.94538,2.64601 4.33992,6.08631 6.2469,8.63092 z"
       style="fill:#000000;fill-opacity:1;stroke:#ffffff;stroke-width:1px;stroke-linecap:butt;stroke-linejoin:miter;stroke-opacity:1" />
    <path
       sodipodi:nodetypes="csscsc"
       inkscape:connector-curvature="0"
       id="path3842"
       d="m 124.07016,246.30403 c -5.0134,6.57573 -2.31116,22.02335 0.0594,25.45078 1.71385,2.47797 25.91467,5.02617 31.68104,1.91236 3.72017,-2.00889 4.78923,-21.48525 2.9938,-26.28025 -3.36197,-8.1056 -33.6373,-3.8773 -34.73421,-1.08289 z"
       style="fill:#000000;fill-opacity:1;stroke:#ffffff;stroke-width:1px;stroke-linecap:butt;stroke-linejoin:miter;stroke-opacity:1" />
    <path
       sodipodi:nodetypes="cc"
       inkscape:connector-curvature="0"
       id="path3846"
       d="m 135.85087,243.26138 c -6.69643,5.44644 -5.26073,25.62871 -2.23027,31.12141"
       style="fill:#000000;stroke:#ffffff;stroke-width:1px;stroke-linecap:butt;stroke-linejoin:miter;stroke-opacity:1;fill-opacity:1" />
    <path
       style="fill:#000000;stroke:#ffffff;stroke-width:1px;stroke-linecap:butt;stroke-linejoin:miter;stroke-opacity:1;fill-opacity:1"
       d="m 147.97841,242.89789 c -6.69643,5.44644 -2.67221,31.94217 -2.67221,31.94217"
       id="path3848"
       inkscape:connector-curvature="0"
       sodipodi:nodetypes="cc" />
    <path
       sodipodi:nodetypes="cc"
       inkscape:connector-curvature="0"
       id="path3850"
       d="m 171.49555,266.22379 c 0.91555,-0.47779 1.82692,-0.47062 2.2991,0.64732"
       style="fill:#000000;stroke:#ffffff;stroke-width:1px;stroke-linecap:round;stroke-linejoin:round;stroke-opacity:1;fill-opacity:1" />
    <path
       style="fill:#000000;fill-opacity:1;stroke:#ffffff;stroke-width:1px;stroke-linecap:butt;stroke-linejoin:miter;stroke-opacity:1"
       d="m 167.25,265.3979 c -12.50963,-4.10455 7.60985,-18.38555 16.48149,-25.07505 -7.57952,9.99247 -20.56023,16.97705 -14.52738,23.25717"
       id="path3844"
       inkscape:connector-curvature="0"
       sodipodi:nodetypes="ccc" />
  </g>
</svg>
